<?xml version="1.0" standalone="no"?><!DOCTYPE svg PUBLIC "-//W3C//DTD SVG 1.1//EN" "http://www.w3.org/Graphics/SVG/1.1/DTD/svg11.dtd"><svg t="1690082704649" class="icon" viewBox="0 0 1024 1024" version="1.1" xmlns="http://www.w3.org/2000/svg" p-id="20949" xmlns:xlink="http://www.w3.org/1999/xlink" width="64" height="64"><path d="M746.666667 682.666667h192v160a53.393333 53.393333 0 0 1-53.333334 53.333333H96a53.393333 53.393333 0 0 1-53.333333-53.333333V213.333333a85.426667 85.426667 0 0 1 85.333333-85.333333h586.666667a53.393333 53.393333 0 0 1 53.333333 53.333333v32H149.333333a21.333333 21.333333 0 0 0 0 42.666667h736a53.393333 53.393333 0 0 1 53.333334 53.333333v160h-192c-58.813333 0-106.666667 47.853333-106.666667 106.666667s47.853333 106.666667 106.666667 106.666667z m197.333333-213.333334h-5.333333v42.666667h-192a64 64 0 0 0 0 128h192v42.666667h5.333333a37.373333 37.373333 0 0 0 37.333333-37.333334V506.666667a37.373333 37.373333 0 0 0-37.333333-37.333334z" fill="#7F8391" p-id="20950"></path></svg>