<?xml version="1.0" standalone="no"?><!DOCTYPE svg PUBLIC "-//W3C//DTD SVG 1.1//EN" "http://www.w3.org/Graphics/SVG/1.1/DTD/svg11.dtd"><svg class="icon" width="64px" height="64.00px" viewBox="0 0 1024 1024" version="1.1" xmlns="http://www.w3.org/2000/svg"><path fill="#ffffff" d="M730.24 0H293.76C131.84 0 0 131.84 0 293.76v436.48C0 892.16 131.84 1024 293.76 1024h436.48A293.76 293.76 0 0 0 1024 730.24V293.76C1024 131.84 892.16 0 730.24 0z m219.52 730.24c0 120.96-98.56 219.52-219.52 219.52H293.76c-120.96 0-219.52-98.56-219.52-219.52V293.76c0-120.96 98.56-219.52 219.52-219.52h436.48c120.96 0 219.52 98.56 219.52 219.52v436.48zM512 249.6a262.4 262.4 0 1 0 0 524.8A262.4 262.4 0 0 0 774.4 512c0-145.28-117.12-262.4-262.4-262.4z m0 451.2a188.736 188.736 0 1 1 0-377.6 188.736 188.736 0 1 1 0 377.6zM785.28 238.72m-61.44 0a61.44 61.44 0 1 0 122.88 0 61.44 61.44 0 1 0-122.88 0Z" /></svg>