<?xml version="1.0" standalone="no"?><!DOCTYPE svg PUBLIC "-//W3C//DTD SVG 1.1//EN" "http://www.w3.org/Graphics/SVG/1.1/DTD/svg11.dtd"><svg class="icon" width="64px" height="64.00px" viewBox="0 0 1024 1024" version="1.1" xmlns="http://www.w3.org/2000/svg"><path fill="#ffffff" d="M512.68 241.36c-176.39 0-327.05 119.74-389.3 289.07 33.83 91.52 93.38 168.71 169.13 220.18l104.8-104.8C368.05 617.59 350 577.95 350 534.17c0-86.12 69.73-155.85 155.85-155.85 43.79 0 83.21 18.05 111.64 47.11l115.38-115.38c-63.93-43.58-139.26-68.69-220.19-68.69z m269.15 107.7L651.51 479.38c6.64 17.02 10.17 35.48 10.17 54.79 0 85.91-69.73 155.85-155.84 155.85-19.3 0-37.77-3.53-54.79-10.17L348.53 782.57c50.43 23.65 105.83 36.73 164.15 36.73 176.18 0 327.05-119.74 389.1-288.87-26.15-70.97-67.45-133.02-119.95-181.37z"  /><path fill="#ffffff" d="M192.32 839.67c-8.45 0-16.89-3.22-23.34-9.67-12.89-12.89-12.89-33.78 0-46.68l590.47-590.47c12.89-12.89 33.78-12.89 46.68 0 12.89 12.89 12.89 33.78 0 46.68L215.66 830a32.95 32.95 0 0 1-23.34 9.67z"  /></svg>