<svg width="20" height="20" viewBox="0 0 20 20" fill="none" xmlns="http://www.w3.org/2000/svg">
<g clip-path="url(#clip0_1716_2623)">
<path d="M9.73535 4.15369C9.88156 4.29989 10.1186 4.29989 10.2648 4.15369L12.0221 2.39639C12.1683 2.25019 12.1683 2.01319 12.0221 1.86699L10.2648 0.10965C10.1186 -0.0365501 9.88156 -0.0365501 9.73535 0.10965L7.97806 1.86699C7.83186 2.01319 7.83186 2.25019 7.97806 2.39639L9.73535 4.15369Z" fill="#EDEFF5"/>
<path d="M9.73535 7.978L7.97806 9.73533C7.83186 9.88153 7.83186 10.1185 7.97806 10.2647L9.73535 12.0221C9.88156 12.1683 10.1186 12.1683 10.2648 12.0221L12.0221 10.2647C12.1683 10.1185 12.1683 9.88153 12.0221 9.73533L10.2648 7.978C10.1186 7.8318 9.88156 7.8318 9.73535 7.978Z" fill="#EDEFF5"/>
<path d="M10.2648 15.8463C10.1186 15.7001 9.88156 15.7001 9.73535 15.8463L7.97806 17.6036C7.83186 17.7498 7.83186 17.9868 7.97806 18.133L9.73535 19.8903C9.88156 20.0365 10.1186 20.0365 10.2648 19.8903L12.0221 18.133C12.1683 17.9868 12.1683 17.7498 12.0221 17.6036L10.2648 15.8463Z" fill="#EDEFF5"/>
<path d="M8.08401 13.6657L4.57571 10.1574C4.48878 10.0705 4.48878 9.92954 4.57571 9.8426L8.08401 6.3343C8.23228 6.18603 8.23228 5.94562 8.08401 5.79731L6.33426 4.04756C6.18599 3.89929 5.94558 3.89929 5.79727 4.04756L0.113401 9.73151C-0.0348708 9.87978 -0.0348708 10.1202 0.113401 10.2685L5.79731 15.9524C5.94558 16.1007 6.18599 16.1007 6.3343 15.9524L8.08405 14.2027C8.23232 14.0544 8.23232 13.814 8.08401 13.6657Z" fill="#EDEFF5"/>
<path d="M19.8866 9.7315L14.2026 4.04759C14.0544 3.89932 13.814 3.89932 13.6656 4.04759L11.9159 5.79734C11.7676 5.94561 11.7676 6.18602 11.9159 6.3343L15.4242 9.84259C15.5111 9.92953 15.5111 10.0705 15.4242 10.1574L11.9159 13.6657C11.7676 13.814 11.7676 14.0544 11.9159 14.2027L13.6656 15.9524C13.8139 16.1007 14.0543 16.1007 14.2026 15.9524L19.8865 10.2685C20.0349 10.1202 20.0349 9.87981 19.8866 9.7315Z" fill="#EDEFF5"/>
</g>
<defs>
<clipPath id="clip0_1716_2623">
<rect width="20" height="20" fill="white"/>
</clipPath>
</defs>
</svg>
