<?xml version="1.0" standalone="no"?><!DOCTYPE svg PUBLIC "-//W3C//DTD SVG 1.1//EN" "http://www.w3.org/Graphics/SVG/1.1/DTD/svg11.dtd"><svg t="1689759935485" class="icon" viewBox="0 0 1024 1024" version="1.1" xmlns="http://www.w3.org/2000/svg" p-id="1288" xmlns:xlink="http://www.w3.org/1999/xlink" width="200" height="200"><path d="M28.85404445 348.4672v-71.68h965.97333333V104.50488889a71.21351111 71.21351111 0 0 0-71.21351111-71.21351111H100.05617778a71.21351111 71.21351111 0 0 0-71.21351111 71.21351111v824.69546666a71.21351111 71.21351111 0 0 0 71.21351111 71.21351112h823.55768889a71.21351111 71.21351111 0 0 0 71.21351111-71.21351112V348.4672zM476.61511111 115.34791111a59.34648889 59.34648889 0 1 1-59.34648889 59.34648889 59.34648889 59.34648889 0 0 1 59.34648889-59.34648889z m-153.82755556 0a59.34648889 59.34648889 0 1 1-59.34648888 59.34648889 59.34648889 59.34648889 0 0 1 59.34648888-59.34648889z m-153.82755555 0a59.34648889 59.34648889 0 1 1-59.34648889 59.34648889 59.34648889 59.34648889 0 0 1 59.33511111-59.34648889z" fill="#2260b6" p-id="1289"></path></svg>