<?xml version="1.0" standalone="no"?><!DOCTYPE svg PUBLIC "-//W3C//DTD SVG 1.1//EN" "http://www.w3.org/Graphics/SVG/1.1/DTD/svg11.dtd"><svg t="1689759964110" class="icon" viewBox="0 0 1024 1024" version="1.1" xmlns="http://www.w3.org/2000/svg" p-id="1442" xmlns:xlink="http://www.w3.org/1999/xlink" width="200" height="200"><path d="M906.80888889 19.64942222H117.19111111a102.4 102.4 0 0 0-102.4 102.4v789.61777778a102.4 102.4 0 0 0 102.4 102.4h789.61777778a102.4 102.4 0 0 0 102.4-102.4v-789.61777778a102.4 102.4 0 0 0-102.4-102.4z m-788.48 68.26666667h789.61777778a34.13333333 34.13333333 0 0 1 34.13333333 34.13333333v164.97777778H84.19555555v-164.97777778a34.13333333 34.13333333 0 0 1 34.13333334-34.13333333z m788.48 857.88444444H117.19111111a34.13333333 34.13333333 0 0 1-34.13333333-34.13333333v-556.37333333h857.88444444v556.37333333a34.13333333 34.13333333 0 0 1-34.13333333 34.13333333z" fill="#808291" p-id="1443"></path><path d="M223.47 227.98m-50 0a50 50 0 1 0 100 0 50 50 0 1 0-100 0Z" fill="#808291" p-id="1444"></path><path d="M353.08 227.98m-50 0a50 50 0 1 0 100 0 50 50 0 1 0-100 0Z" fill="#808291" p-id="1445"></path><path d="M482.69 227.98m-50 0a50 50 0 1 0 100 0 50 50 0 1 0-100 0Z" fill="#808291" p-id="1446"></path></svg>