<?xml version="1.0" standalone="no"?><!DOCTYPE svg PUBLIC "-//W3C//DTD SVG 1.1//EN" "http://www.w3.org/Graphics/SVG/1.1/DTD/svg11.dtd"><svg t="1690092017428" class="icon" viewBox="0 0 1024 1024" version="1.1" xmlns="http://www.w3.org/2000/svg" p-id="87400" xmlns:xlink="http://www.w3.org/1999/xlink" width="128" height="128"><path d="M527.8 957.6H213c-81 0-146.9-65.9-146.9-146.9v-300c0-81 65.9-146.9 146.9-146.9h70.5c22.6 0 41 18.4 41 41s-18.4 41-41 41H213c-35.8 0-64.9 29.1-64.9 64.9v300.1c0 35.8 29.1 64.9 64.9 64.9h314.8c35.8 0 64.9-29.1 64.9-64.9v-73.1c0-22.6 18.4-41 41-41s41 18.4 41 41v73.1c0 80.9-65.9 146.8-146.9 146.8z" p-id="87401"></path><path d="M812.9 660.6H498.1c-81 0-146.9-65.9-146.9-146.9V213.6c0-81 65.9-146.9 146.9-146.9h314.8c81 0 146.9 65.9 146.9 146.9v300.1c0 81-65.9 146.9-146.9 146.9zM498.1 148.7c-35.8 0-64.9 29.1-64.9 64.9v300.1c0 35.8 29.1 64.9 64.9 64.9h314.8c35.8 0 64.9-29.1 64.9-64.9V213.6c0-35.8-29.1-64.9-64.9-64.9H498.1z" p-id="87402"></path></svg>