<?xml version="1.0" standalone="no"?><!DOCTYPE svg PUBLIC "-//W3C//DTD SVG 1.1//EN" "http://www.w3.org/Graphics/SVG/1.1/DTD/svg11.dtd"><svg class="icon" width="64px" height="64.00px" viewBox="0 0 1024 1024" version="1.1" xmlns="http://www.w3.org/2000/svg"><path fill="#ffffff" d="M785.4592 212.1728c54.1696 54.1696 94.8224 117.4016 112.896 189.6448 63.1808 225.7408-76.8 451.4816-302.4896 514.6624-27.136 4.5568-49.664-9.0112-58.7264-31.5904-4.5056-9.0112-4.5056-36.096-4.5056-45.1584v-234.752c0-27.136 22.5792-45.1584 49.664-45.1584 27.136 0 49.664 22.528 49.664 45.1584v203.1616c144.4864-67.7376 221.2352-225.792 180.5824-379.2384-13.5168-58.7264-45.1072-108.3904-90.2656-148.992a49.1008 49.1008 0 0 1 0-67.7376 43.6224 43.6224 0 0 1 63.1808 0z m-302.4896-76.8c4.5056 13.568 4.5056 40.6528 4.5056 45.2096v234.752c0 27.136-22.528 45.1584-49.664 45.1584-27.0848 0-49.664-22.5792-49.664-45.1584V212.1728C243.712 279.9104 166.9632 437.9136 207.5648 591.36c13.568 58.7264 45.1584 108.3904 90.3168 148.992a49.1008 49.1008 0 0 1 0 67.7376 49.1008 49.1008 0 0 1-67.7376 0c-54.1696-54.1696-94.8224-117.4016-112.896-189.6448-58.6752-225.7408 76.8-451.4816 307.0464-514.6624 22.528-4.5568 49.664 13.5168 58.6752 31.5904z" /></svg>