<?xml version="1.0" standalone="no"?><!DOCTYPE svg PUBLIC "-//W3C//DTD SVG 1.1//EN" "http://www.w3.org/Graphics/SVG/1.1/DTD/svg11.dtd"><svg class="icon" width="64px" height="64.00px" viewBox="0 0 1024 1024" version="1.1" xmlns="http://www.w3.org/2000/svg"><path fill="#ffffff" d="M642.674 424.286c11.31-11.31 11.31-29.648 0-40.96-11.312-11.31-29.65-11.31-40.96 0l40.96 40.96z m-259.348 177.428c-11.31 11.31-11.31 29.648 0 40.96 11.312 11.31 29.65 11.31 40.96 0l-40.96-40.96z m218.388 40.96c11.31 11.31 29.648 11.31 40.96 0 11.31-11.312 11.31-29.65 0-40.96l-40.96 40.96z m-177.428-259.348c-11.31-11.31-29.648-11.31-40.96 0-11.31 11.312-11.31 29.65 0 40.96l40.96-40.96z m177.428 0L383.326 601.714l40.96 40.96 218.388-218.388-40.96-40.96z m40.96 218.388L424.286 383.326l-40.96 40.96 218.388 218.388 40.96-40.96zM744.628 98H281.372v57.906h463.256V98zM98 281.372v463.256h57.906V281.372H98zM281.372 928h463.256v-57.906H281.372V928zM928 744.628V281.372h-57.906v463.256H928zM744.628 928c101.26 0 183.372-82.112 183.372-183.372h-57.906c0 69.296-56.17 125.466-125.466 125.466V928zM98 744.628C98 845.888 180.112 928 281.372 928v-57.906c-69.296 0-125.466-56.17-125.466-125.466H98zM281.372 98C180.112 98 98 180.112 98 281.372h57.906c0-69.296 56.17-125.466 125.466-125.466V98z m463.256 57.906c69.296 0 125.466 56.17 125.466 125.466H928C928 180.112 845.888 98 744.628 98v57.906z"  /></svg>