<?xml version="1.0" standalone="no"?><!DOCTYPE svg PUBLIC "-//W3C//DTD SVG 1.1//EN" "http://www.w3.org/Graphics/SVG/1.1/DTD/svg11.dtd"><svg class="icon" width="64px" height="64.00px" viewBox="0 0 1024 1024" version="1.1" xmlns="http://www.w3.org/2000/svg"><path d="M837.818182 1024H186.181818c-102.865455 0-186.181818-83.316364-186.181818-186.181818V186.181818c0-102.865455 83.316364-186.181818 186.181818-186.181818h651.636364c102.865455 0 186.181818 83.316364 186.181818 186.181818v651.636364c0 102.865455-83.316364 186.181818-186.181818 186.181818z" fill="#FC5656" /><path d="M792.203636 884.363636H231.796364C193.861818 884.363636 162.909091 853.410909 162.909091 815.476364V208.523636C162.909091 170.589091 193.861818 139.636364 231.796364 139.636364h560.407272C830.138182 139.636364 861.090909 170.589091 861.090909 208.523636v379.810909c0 12.8-10.472727 23.272727-23.272727 23.272728s-23.272727-10.472727-23.272727-23.272728V208.523636a22.341818 22.341818 0 0 0-22.341819-22.341818H231.796364a22.341818 22.341818 0 0 0-22.341819 22.341818v606.952728c0 12.334545 10.007273 22.341818 22.341819 22.341818h560.407272c12.334545 0 22.341818-10.007273 22.341819-22.341818v-47.941819c0-12.8 10.472727-23.272727 23.272727-23.272727s23.272727 10.472727 23.272727 23.272727v47.941819c0 37.934545-30.952727 68.887273-68.887273 68.887272z" fill="#FFFFFF" /><path d="M512 575.767273c-62.370909 0-113.105455-50.734545-113.105455-113.105455s50.734545-113.105455 113.105455-113.105454 113.105455 50.734545 113.105455 113.105454-50.734545 113.105455-113.105455 113.105455z m0-179.432728a66.56 66.56 0 1 0-0.023273 133.096728A66.56 66.56 0 0 0 512 396.334545z" fill="#FFFFFF" /><path d="M453.352727 418.210909c-5.352727 0-10.705455-1.861818-15.127272-5.585454L188.741818 201.309091a23.272727 23.272727 0 0 1-2.792727-32.814546c8.378182-9.774545 23.04-10.938182 32.814545-2.56l249.483637 211.316364c9.774545 8.378182 10.938182 23.04 2.792727 32.814546-4.654545 5.352727-11.170909 8.145455-17.687273 8.145454zM581.352727 428.916364c-6.050909 0-12.101818-2.327273-16.756363-7.214546a23.179636 23.179636 0 0 1 0.698181-32.814545l240.407273-231.796364A23.179636 23.179636 0 1 1 837.818182 190.603636l-240.407273 231.796364c-4.421818 4.421818-10.24 6.516364-16.058182 6.516364z" fill="#FFFFFF" /></svg>