<?xml version="1.0" standalone="no"?><!DOCTYPE svg PUBLIC "-//W3C//DTD SVG 1.1//EN" "http://www.w3.org/Graphics/SVG/1.1/DTD/svg11.dtd"><svg t="1690261391485" class="icon" viewBox="0 0 1024 1024" version="1.1" xmlns="http://www.w3.org/2000/svg" p-id="109079" xmlns:xlink="http://www.w3.org/1999/xlink" width="128" height="128"><path d="M418.909 0c-230.4 0-418.909 188.509-418.909 418.909s188.509 418.909 418.909 418.909 418.909-188.509 418.909-418.909c0-230.4-188.509-418.909-418.909-418.909zM418.909 768c-193.164 0-349.091-155.927-349.091-349.091 0-193.164 155.927-349.091 349.091-349.091s349.091 155.927 349.091 349.091c0 193.164-155.927 349.091-349.091 349.091zM1007.709 914.619l0 0c-16.291 16.291-44.218 16.291-62.836 0l-130.327-130.327c-16.291-16.291-16.291-44.218 0-62.836l0 0c16.291-16.291 44.218-16.291 62.836 0l130.327 130.327c16.291 16.291 16.291 44.218 0 62.836z" fill="#272636" p-id="109080"></path></svg>