<?xml version="1.0" standalone="no"?><!DOCTYPE svg PUBLIC "-//W3C//DTD SVG 1.1//EN" "http://www.w3.org/Graphics/SVG/1.1/DTD/svg11.dtd"><svg class="icon" width="64px" height="64.00px" viewBox="0 0 1024 1024" version="1.1" xmlns="http://www.w3.org/2000/svg"><path fill="#ffffff" d="M516.053333 170.666667a341.333333 341.333333 0 0 0-202.24 63.402666l-49.493333-69.461333a426.666667 426.666667 0 0 1 655.317333 473.429333l40.362667 23.296-188.373333 112.938667 22.101333-208.938667 49.621333 28.629334a341.333333 341.333333 0 0 0-327.253333-423.253334zM234.666667 256v192l-51.2-28.458667a341.333333 341.333333 0 0 0 521.898666 373.76l48.341334 70.272A426.666667 426.666667 0 0 1 107.178667 377.173333L42.666667 341.333333l192-85.333333z"  /><path fill="#ffffff" d="M554.666667 298.666667h-85.333334v42.666666h-42.666666a106.666667 106.666667 0 0 0 0 213.333334h170.666666a21.333333 21.333333 0 0 1 0 42.666666H362.666667v85.333334H469.333333v42.666666h85.333334v-42.666666h42.666666a106.666667 106.666667 0 0 0 0-213.333334h-170.666666a21.333333 21.333333 0 0 1 0-42.666666h234.666666V341.333333H554.666667V298.666667z"  /></svg>