<svg width="209" height="207" viewBox="0 0 209 207" fill="none" xmlns="http://www.w3.org/2000/svg">
<path fill-rule="evenodd" clip-rule="evenodd" d="M81.0394 61.1497C72.0595 67.2437 65.2525 73.9659 63.0797 82.097C55.2541 110.921 65.6599 154.445 119.454 145.431C140.537 141.086 158.293 127.658 168.495 109.563C133.815 158.723 61.2973 118.305 81.0224 61.1497H81.0394Z" fill="url(#paint0_linear_5247_1209)"/>
<path fill-rule="evenodd" clip-rule="evenodd" d="M134.901 99.2591C164.217 130.918 187.677 80.6204 171.483 43.8692C160.008 18.3556 134.358 0.599609 104.431 0.599609C97.8276 0.599609 91.4449 1.48232 85.3169 3.11193C167.884 -5.29076 175.981 106.372 134.901 99.2591Z" fill="url(#paint1_linear_5247_1209)"/>
<path fill-rule="evenodd" clip-rule="evenodd" d="M119.471 145.431C86.6921 150.524 72.0595 112.89 74.5888 85.8317C76.49 65.7671 86.8279 45.8892 100.781 30.5776C110.169 20.2737 97.658 13.4837 89.7646 21.4959C84.9437 26.4527 80.3094 31.664 75.8959 37.0282C71.6691 42.1886 64.6753 38.5899 67.1198 32.2072C67.7309 30.5776 68.5457 29.0838 69.6321 27.7258C76.3712 19.1194 64.5226 11.2429 55.7634 19.0515C40.5876 32.4109 31.0815 52.0003 31.0815 73.7624C31.0815 114.18 63.9284 146.925 104.465 146.925C109.642 146.925 114.667 146.45 119.488 145.431H119.471Z" fill="url(#paint2_linear_5247_1209)"/>
<path fill-rule="evenodd" clip-rule="evenodd" d="M126.346 71.0463C129.401 64.1374 121.661 61.014 117.502 65.9538C115.94 67.855 114.497 69.892 113.292 72.0478C111.051 76.054 107.3 73.7453 108.318 70.2824C109.812 65.3257 111.51 60.9291 113.496 57.0588C117.434 49.3351 108.471 46.8228 104.855 52.3736C99.8817 60.0973 97.3015 69.875 97.641 79.5678C97.7089 83.1665 93.2784 83.0308 93.1596 79.6357C93.0917 79.0925 93.0917 78.6172 93.1596 78.1419C93.4991 71.0293 83.7723 69.9429 83.3649 78.4135C81.7353 109.257 110.848 133.6 141.318 124.654C162.673 118.271 177.916 96.4411 177.916 73.7284C177.916 63.0171 175.608 52.9168 171.449 43.6824C179.953 62.7285 168.733 94.7436 146.835 99.2929C140.435 100.583 131.523 99.8361 126.702 95.0831C119.828 88.3779 122.9 78.8039 126.363 71.0123L126.346 71.0463Z" fill="url(#paint3_linear_5247_1209)"/>
<path fill-rule="evenodd" clip-rule="evenodd" d="M74.0966 13.9587C77.7802 13.9587 80.7678 10.971 80.7678 7.32139C80.7678 3.67174 77.7802 0.616211 74.0966 0.616211C70.4129 0.616211 67.3574 3.67174 67.3574 7.32139C67.3574 10.971 70.345 13.9587 74.0966 13.9587Z" fill="url(#paint4_linear_5247_1209)"/>
<path fill-rule="evenodd" clip-rule="evenodd" d="M109.608 19.2387C111.849 19.2387 113.683 17.4054 113.683 15.1646C113.683 12.9239 111.849 11.0227 109.608 11.0227C107.368 11.0227 105.467 12.856 105.467 15.1646C105.467 17.4733 107.3 19.2387 109.608 19.2387Z" fill="url(#paint5_linear_5247_1209)"/>
<path fill-rule="evenodd" clip-rule="evenodd" d="M114.701 44.5311C116.806 44.5311 118.504 42.8336 118.504 40.7287C118.504 38.6238 116.806 36.9263 114.701 36.9263C112.596 36.9263 110.967 38.6238 110.967 40.7287C110.967 42.8336 112.664 44.5311 114.701 44.5311Z" fill="url(#paint6_linear_5247_1209)"/>
<path fill-rule="evenodd" clip-rule="evenodd" d="M89.476 68.3983C91.9884 68.3983 94.0933 66.2934 94.0933 63.7811C94.0933 61.2688 91.9884 59.0959 89.476 59.0959C86.9637 59.0959 84.7739 61.2009 84.7739 63.7811C84.7739 66.3613 86.8788 68.3983 89.476 68.3983Z" fill="url(#paint7_linear_5247_1209)"/>
<path d="M32.8978 193.607C30.6571 188.361 29.9442 186.528 29.4349 184.847C28.3145 186.528 26.9396 188.31 22.8655 193.556L15.6341 202.977C13.8008 205.32 11.5601 207 8.45362 207C5.34717 207 3.10645 205.269 2.74997 201.704C1.78239 191.926 0.916658 182.098 0 172.32H11.7128L12.8332 185.764C12.9351 186.783 12.9351 187.852 12.9351 188.769C12.9351 189.991 12.8841 191.06 12.7823 191.824C14.1573 189.736 16.5508 186.477 19.1989 182.963L24.4442 175.986C27.2451 172.269 29.0784 171.709 31.9302 171.709C34.7821 171.709 36.5135 172.218 37.9394 175.986L41.0968 184.135C42.8283 188.718 43.2357 190.246 43.8977 191.824C44.407 190.195 45.2218 188.158 46.1384 186.019L51.9949 172.32H63.5549L50.1106 201.704C48.481 205.269 45.5783 207 42.5737 207C39.3654 207 37.8376 205.421 36.87 202.977L32.8978 193.607Z" fill="url(#paint8_linear_5247_1209)"/>
<path d="M70.8883 206.389L79.7494 196.611H87.3882C89.0178 196.611 90.953 196.611 91.9715 196.713C91.615 196.153 90.6983 194.574 90.1891 193.505L86.0132 185.204L67.018 206.389H53.0645L80.2077 176.037C82.2447 173.746 84.8928 171.709 88.5595 171.709C92.2261 171.709 94.0594 173.593 95.3326 176.037L111.17 206.389H70.8883Z" fill="url(#paint9_linear_5247_1209)"/>
<path d="M137.702 202.722C135.716 204.963 133.068 207 129.452 207C125.836 207 123.901 205.116 122.628 202.722L106.841 172.32H121.304L131.998 193.505L150.994 172.32H164.896L137.702 202.722Z" fill="url(#paint10_linear_5247_1209)"/>
<path d="M162.656 206.389L168.716 172.32H208.947L199.526 182.25H178.697L178.239 185.102H204.618L196.572 193.403H176.762L176.202 196.611H204.771L195.452 206.389H162.656Z" fill="url(#paint11_linear_5247_1209)"/>
<defs>
<linearGradient id="paint0_linear_5247_1209" x1="151.113" y1="150.575" x2="72.7725" y2="76.631" gradientUnits="userSpaceOnUse">
<stop stop-color="#4A71B7"/>
<stop offset="0.53" stop-color="#3C58A8"/>
<stop offset="1" stop-color="#28276F"/>
</linearGradient>
<linearGradient id="paint1_linear_5247_1209" x1="123.409" y1="12.2276" x2="160.534" y2="95.8132" gradientUnits="userSpaceOnUse">
<stop stop-color="#4A71B7"/>
<stop offset="0.53" stop-color="#3C58A8"/>
<stop offset="1" stop-color="#28276F"/>
</linearGradient>
<linearGradient id="paint2_linear_5247_1209" x1="63.9963" y1="55.7008" x2="118.368" y2="125.418" gradientUnits="userSpaceOnUse">
<stop stop-color="#8ED5E3"/>
<stop offset="0.49" stop-color="#3DBEEE"/>
<stop offset="1" stop-color="#4A82C3"/>
</linearGradient>
<linearGradient id="paint3_linear_5247_1209" x1="83.28" y1="85.1357" x2="177.899" y2="85.1357" gradientUnits="userSpaceOnUse">
<stop stop-color="#8ED5E3"/>
<stop offset="0.49" stop-color="#3DBEEE"/>
<stop offset="1" stop-color="#4A82C3"/>
</linearGradient>
<linearGradient id="paint4_linear_5247_1209" x1="67.3744" y1="7.27047" x2="80.7678" y2="7.27047" gradientUnits="userSpaceOnUse">
<stop stop-color="#8ED5E3"/>
<stop offset="0.49" stop-color="#3DBEEE"/>
<stop offset="1" stop-color="#4A82C3"/>
</linearGradient>
<linearGradient id="paint5_linear_5247_1209" x1="105.467" y1="15.1477" x2="113.683" y2="15.1477" gradientUnits="userSpaceOnUse">
<stop stop-color="#8ED5E3"/>
<stop offset="0.49" stop-color="#3DBEEE"/>
<stop offset="1" stop-color="#4A82C3"/>
</linearGradient>
<linearGradient id="paint6_linear_5247_1209" x1="110.967" y1="40.7457" x2="118.52" y2="40.7457" gradientUnits="userSpaceOnUse">
<stop stop-color="#8ED5E3"/>
<stop offset="0.49" stop-color="#3DBEEE"/>
<stop offset="1" stop-color="#4A82C3"/>
</linearGradient>
<linearGradient id="paint7_linear_5247_1209" x1="84.7739" y1="63.7641" x2="94.0933" y2="63.7641" gradientUnits="userSpaceOnUse">
<stop stop-color="#8ED5E3"/>
<stop offset="0.49" stop-color="#3DBEEE"/>
<stop offset="1" stop-color="#4A82C3"/>
</linearGradient>
<linearGradient id="paint8_linear_5247_1209" x1="-29.5877" y1="172.167" x2="253.405" y2="248.199" gradientUnits="userSpaceOnUse">
<stop stop-color="#4A71B7"/>
<stop offset="0.53" stop-color="#3C58A8"/>
<stop offset="1" stop-color="#28276F"/>
</linearGradient>
<linearGradient id="paint9_linear_5247_1209" x1="-27.0243" y1="162.61" x2="255.985" y2="238.642" gradientUnits="userSpaceOnUse">
<stop stop-color="#4A71B7"/>
<stop offset="0.53" stop-color="#3C58A8"/>
<stop offset="1" stop-color="#28276F"/>
</linearGradient>
<linearGradient id="paint10_linear_5247_1209" x1="-22.1188" y1="144.345" x2="260.891" y2="220.359" gradientUnits="userSpaceOnUse">
<stop stop-color="#4A71B7"/>
<stop offset="0.53" stop-color="#3C58A8"/>
<stop offset="1" stop-color="#28276F"/>
</linearGradient>
<linearGradient id="paint11_linear_5247_1209" x1="-19.4026" y1="134.244" x2="263.607" y2="210.259" gradientUnits="userSpaceOnUse">
<stop stop-color="#4A71B7"/>
<stop offset="0.53" stop-color="#3C58A8"/>
<stop offset="1" stop-color="#28276F"/>
</linearGradient>
</defs>
</svg>
