<svg width="25" height="24" viewBox="0 0 25 24" fill="none" xmlns="http://www.w3.org/2000/svg">
<path fill-rule="evenodd" clip-rule="evenodd" d="M0.250942 11.9753L0.250691 12.0513L0.250671 12.0513V19.8294C0.250671 22.0449 2.04703 23.8405 4.26208 23.8405L12.0342 23.8397C12.0685 23.8402 12.1141 23.8405 12.1595 23.8405C18.7367 23.8405 24.0684 18.5089 24.0684 11.9317C24.0684 5.35448 18.7367 0.0228271 12.1595 0.0228271C5.5826 0.0228271 0.250691 5.35448 0.250691 11.9317L0.250942 11.9753ZM12.0455 21.8341L4.2621 21.8348L4.26209 21.8348C3.16534 21.8349 2.27189 20.9541 2.2564 19.8574V11.9317C2.2564 6.46235 6.69025 2.0285 12.1596 2.0285C17.6289 2.0285 22.0627 6.46235 22.0627 11.9317C22.0627 17.401 17.6289 21.8348 12.1596 21.8348L12.0455 21.8341Z" fill="#7F8391"/>
<path fill-rule="evenodd" clip-rule="evenodd" d="M6.26779 10.0513C6.26779 10.7445 6.86449 11.3049 7.59782 11.3049H16.2198C16.9534 11.3049 17.5499 10.7445 17.5499 10.0513C17.5499 9.35807 16.9532 8.79773 16.2198 8.79773H7.59782C6.86424 8.79773 6.26779 9.35807 6.26779 10.0513ZM6.26779 15.0656C6.26779 15.7593 6.89533 16.3191 7.66577 16.3191H11.6391C12.4095 16.3191 13.037 15.7593 13.037 15.0656C13.037 14.3718 12.4095 13.812 11.6391 13.812H7.66577C6.89533 13.812 6.26779 14.3718 6.26779 15.0656Z" fill="#7F8391"/>
</svg>
