<svg width="25" height="24" viewBox="0 0 25 24" fill="none" xmlns="http://www.w3.org/2000/svg">
<path d="M0.2507 12.0512L0.25095 11.9753L0.2507 11.9316C0.2507 5.35444 5.58261 0.0227966 12.1595 0.0227966C18.7367 0.0227966 24.0684 5.35444 24.0684 11.9316C24.0684 18.5088 18.7367 23.8405 12.1595 23.8405C12.1142 23.8405 12.0685 23.8402 12.0342 23.8397L4.26209 23.8405C2.04704 23.8405 0.25068 22.0449 0.25068 19.8293V12.0512L0.2507 12.0512Z" fill="#0C666B"/>
<path fill-rule="evenodd" clip-rule="evenodd" d="M6.26781 10.0513C6.26781 10.7445 6.8645 11.3049 7.59784 11.3049H16.2198C16.9534 11.3049 17.5499 10.7445 17.5499 10.0513C17.5499 9.35807 16.9532 8.79773 16.2198 8.79773H7.59784C6.86425 8.79773 6.26781 9.35807 6.26781 10.0513ZM6.26781 15.0656C6.26781 15.7593 6.89534 16.3191 7.66578 16.3191H11.6391C12.4095 16.3191 13.0371 15.7593 13.0371 15.0656C13.0371 14.3718 12.4095 13.812 11.6391 13.812H7.66578C6.89534 13.812 6.26781 14.3718 6.26781 15.0656Z" fill="white"/>
</svg>
