<svg width="26" height="24" viewBox="0 0 26 24" fill="none" xmlns="http://www.w3.org/2000/svg">
<g id="account-circle-outline">
<path id="Vector" d="M14 0C12.4241 0 10.8637 0.310389 9.4078 0.913446C7.95189 1.5165 6.62902 2.40042 5.51472 3.51472C3.26428 5.76516 2 8.8174 2 12C2 15.1826 3.26428 18.2348 5.51472 20.4853C6.62902 21.5996 7.95189 22.4835 9.4078 23.0866C10.8637 23.6896 12.4241 24 14 24C17.1826 24 20.2348 22.7357 22.4853 20.4853C24.7357 18.2348 26 15.1826 26 12C26 10.4241 25.6896 8.86371 25.0866 7.4078C24.4835 5.95189 23.5996 4.62902 22.4853 3.51472C21.371 2.40042 20.0481 1.5165 18.5922 0.913446C17.1363 0.310389 15.5759 0 14 0ZM8.084 19.536C8.6 18.456 11.744 17.4 14 17.4C16.256 17.4 19.4 18.456 19.916 19.536C18.284 20.832 16.232 21.6 14 21.6C11.768 21.6 9.716 20.832 8.084 19.536ZM21.632 17.796C19.916 15.708 15.752 15 14 15C12.248 15 8.084 15.708 6.368 17.796C5.144 16.2 4.4 14.184 4.4 12C4.4 6.708 8.708 2.4 14 2.4C19.292 2.4 23.6 6.708 23.6 12C23.6 14.184 22.856 16.2 21.632 17.796ZM14 4.8C11.672 4.8 9.8 6.672 9.8 9C9.8 11.328 11.672 13.2 14 13.2C16.328 13.2 18.2 11.328 18.2 9C18.2 6.672 16.328 4.8 14 4.8ZM14 10.8C13.5226 10.8 13.0648 10.6104 12.7272 10.2728C12.3896 9.93523 12.2 9.47739 12.2 9C12.2 8.52261 12.3896 8.06477 12.7272 7.72721C13.0648 7.38964 13.5226 7.2 14 7.2C14.4774 7.2 14.9352 7.38964 15.2728 7.72721C15.6104 8.06477 15.8 8.52261 15.8 9C15.8 9.47739 15.6104 9.93523 15.2728 10.2728C14.9352 10.6104 14.4774 10.8 14 10.8Z" fill="#7F8391"/>
</g>
</svg>
