<svg width="39" height="40" viewBox="0 0 39 40" fill="none" xmlns="http://www.w3.org/2000/svg">
<path d="M19.4647 0.673835C8.72227 0.664794 0.0090481 9.36601 7.03924e-06 20.1085C-0.00903402 30.8509 8.69219 39.5641 19.4346 39.5732C30.1756 39.5641 38.8828 30.8645 38.8993 20.1235C38.8993 9.38706 30.2012 0.682876 19.4647 0.673835ZM19.4346 36.3366C10.4806 36.3366 3.22159 29.0776 3.22159 20.1235C3.22159 11.1694 10.4806 3.91046 19.4346 3.91046C28.3857 3.9195 35.6386 11.1725 35.6477 20.1235C35.6477 29.0776 28.3887 36.3366 19.4346 36.3366Z" fill="#7F8391"/>
<path d="M24.6886 19.1752C25.9893 18.442 26.6923 16.9743 26.4499 15.502C26.1488 13.2289 23.4392 12.3708 21.3014 12.1902V8.77295H19.1939V12.1601H17.7788V8.77295H15.6713V12.1601H11.426V14.3429H13.0067C13.7142 14.3429 14.0605 14.5537 14.0605 15.1257V24.5043C14.0605 25.2871 13.669 25.528 13.2475 25.528H11.6368V27.756H15.7315V31.2184H17.8541V27.756H19.2691V31.2184H21.3315V27.756H21.7831C26.1187 27.756 27.5639 25.6334 27.5639 22.7431C27.5292 21.0388 26.3475 19.5726 24.6886 19.1752ZM17.7788 14.4784H19.2841C20.3379 14.4784 22.4154 14.6591 22.4154 16.3752C22.4876 17.4952 21.6762 18.4767 20.5637 18.6182H17.7788V14.4784ZM20.1121 25.3172V25.3021H17.7788V20.7859H20.4885C21.1208 20.7859 23.4993 20.9967 23.4993 22.6827C23.4993 24.3688 22.3703 25.3172 20.1121 25.3172Z" fill="#7F8391"/>
</svg>
