<svg width="39" height="40" viewBox="0 0 39 40" fill="none" xmlns="http://www.w3.org/2000/svg">
<path d="M19.5 39.6552C30.2524 39.6552 38.9999 30.9077 38.9999 20.1552C37.9292 -5.71414 1.06718 -5.70705 0 20.1552C0 30.9077 8.74751 39.6552 19.5 39.6552Z" fill="#EED671"/>
<path d="M18.8737 16.8693C14.9843 20.8934 14.9879 19.4194 18.8737 23.4399C19.2203 23.7865 19.7804 23.7865 20.127 23.4399L22.7861 20.7817C23.1291 20.452 23.13 19.8581 22.7861 19.5284L20.127 16.8693C19.7804 16.5227 19.2203 16.5227 18.8737 16.8693Z" fill="#F7F7F7"/>
<path d="M13.5552 19.009C13.8876 19.3413 14.4762 19.3413 14.8086 19.009L19.5001 14.3174L24.1916 19.009C24.5213 19.352 25.1152 19.3529 25.4449 19.009L28.104 16.3499C28.4506 16.0033 28.4506 15.4431 28.104 15.0966L20.1267 7.1193C19.7802 6.77273 19.22 6.77273 18.8734 7.1193L10.8962 15.0966C10.5496 15.4431 10.5496 16.0033 10.8962 16.3499L13.5552 19.009Z" fill="#F7F7F7"/>
<path d="M32.5359 19.5275C28.5118 15.6399 29.9867 15.6426 25.9644 19.5275C25.6214 19.8572 25.6205 20.4511 25.9644 20.7808L28.6235 23.4399C28.97 23.7865 29.5302 23.7865 29.8768 23.4399L32.5359 20.7808C32.8789 20.4511 32.8798 19.8572 32.5359 19.5275Z" fill="#F7F7F7"/>
<path d="M6.46463 19.5275C10.4887 15.6399 9.01381 15.6426 13.0361 19.5275C13.3791 19.8572 13.38 20.4511 13.0361 20.7808L10.377 23.4399C10.0305 23.7865 9.47028 23.7865 9.12372 23.4399L6.46463 20.7808C6.12161 20.4511 6.12072 19.8572 6.46463 19.5275Z" fill="#F7F7F7"/>
<path d="M25.4449 21.3011C25.1125 20.9687 24.524 20.9687 24.1916 21.3011L19.5001 25.9926L14.8086 21.3011C14.4788 20.958 13.885 20.9571 13.5552 21.3011L10.8962 23.9601C10.5496 24.3067 10.5496 24.8669 10.8962 25.2135L18.8734 33.1907C19.22 33.5373 19.7802 33.5373 20.1267 33.1907L28.104 25.2135C28.4506 24.8669 28.4506 24.3067 28.104 23.9601L25.4449 21.3011Z" fill="#F7F7F7"/>
</svg>
