<svg width="39" height="39" viewBox="0 0 39 39" fill="none" xmlns="http://www.w3.org/2000/svg">
<g id="Group 1000003941">
<circle id="Ellipse 27" cx="21.3946" cy="18.8013" r="13.6148" fill="white"/>
<path id="ethereum-circle" d="M19.4497 0C15.6029 0 11.8425 1.1407 8.64402 3.27786C5.44554 5.41502 2.95262 8.45264 1.48053 12.0066C0.00842727 15.5606 -0.376741 19.4712 0.373729 23.2441C1.1242 27.017 2.9766 30.4826 5.69668 33.2027C8.41677 35.9227 11.8824 37.7751 15.6552 38.5256C19.4281 39.2761 23.3388 38.8909 26.8927 37.4188C30.4467 35.9467 33.4843 33.4538 35.6215 30.2553C37.7586 27.0568 38.8993 23.2964 38.8993 19.4497C38.8993 16.8955 38.3962 14.3663 37.4188 12.0066C36.4414 9.64686 35.0087 7.50274 33.2027 5.69667C31.3966 3.89061 29.2525 2.45795 26.8927 1.48052C24.533 0.50308 22.0038 0 19.4497 0ZM25.1601 23.7286L20.3249 30.6721C20.2257 30.8118 20.0944 30.9257 19.9422 31.0043C19.7899 31.0829 19.621 31.1239 19.4497 31.1239C19.2783 31.1239 19.1094 31.0829 18.9572 31.0043C18.8049 30.9257 18.6737 30.8118 18.5744 30.6721L13.7392 23.7286C13.6953 23.6614 13.6733 23.5822 13.6761 23.502C13.679 23.4218 13.7066 23.3444 13.7552 23.2805C13.8038 23.2165 13.8709 23.1692 13.9475 23.145C14.024 23.1207 14.1062 23.1208 14.1827 23.1451L18.9829 24.74C19.2854 24.8437 19.6139 24.8437 19.9165 24.74L24.7186 23.1451C24.795 23.1214 24.8768 23.1218 24.953 23.1463C25.0291 23.1707 25.0959 23.2181 25.1441 23.2819C25.1924 23.3457 25.2198 23.4228 25.2227 23.5027C25.2255 23.5826 25.2037 23.6615 25.1601 23.7286ZM25.8486 19.6636L19.4497 21.8225L13.0527 19.6714C12.9716 19.6443 12.8974 19.5998 12.8355 19.5409C12.7735 19.482 12.7252 19.4103 12.694 19.3307C12.6629 19.2511 12.6496 19.1656 12.6551 19.0803C12.6606 18.995 12.6848 18.9119 12.7259 18.837L18.5161 8.33418C18.6106 8.17018 18.7466 8.03396 18.9105 7.93925C19.0744 7.84454 19.2604 7.79468 19.4497 7.79468C19.639 7.79468 19.8249 7.84454 19.9888 7.93925C20.1527 8.03396 20.2887 8.17018 20.3833 8.33418L26.1734 18.8467C26.2128 18.9211 26.2357 19.0032 26.2404 19.0873C26.2451 19.1713 26.2316 19.2554 26.2008 19.3338C26.1699 19.4121 26.1224 19.4829 26.0617 19.5412C26.0009 19.5994 25.9282 19.6439 25.8486 19.6714V19.6636Z" fill="#7F8391"/>
</g>
</svg>
