<svg width="37" height="37" viewBox="0 0 37 37" fill="none" xmlns="http://www.w3.org/2000/svg">
<path d="M18.2341 36.9794C8.18102 36.9794 0 28.7983 0 18.7453C0 8.69225 8.18102 0.51123 18.2341 0.51123C28.2871 0.51123 36.4681 8.69225 36.4681 18.7453C36.4681 28.7983 28.2871 36.9794 18.2341 36.9794ZM18.2341 1.72683C8.8496 1.72683 1.2156 9.36083 1.2156 18.7453C1.2156 28.1298 8.8496 35.7638 18.2341 35.7638C27.6185 35.7638 35.2525 28.1298 35.2525 18.7453C35.2525 9.36083 27.6185 1.72683 18.2341 1.72683Z" fill="#7F8391"/>
<path d="M19.4498 17.8943C19.158 17.8943 18.8906 17.6755 18.8541 17.3716C18.8055 17.0434 19.0365 16.7273 19.3647 16.6787L29.6973 15.147C30.0255 15.1106 30.3416 15.3294 30.3902 15.6576C30.4388 15.9858 30.2079 16.3019 29.8797 16.3505L19.547 17.8821C19.5105 17.8821 19.4741 17.8943 19.4498 17.8943Z" fill="#7F8391"/>
<path d="M19.4496 17.8943C19.3159 17.8943 19.1822 17.8457 19.0606 17.7606L8.72799 9.33649C8.47272 9.12983 8.42409 8.74084 8.6429 8.48556C8.86171 8.23029 9.23855 8.18166 9.49382 8.40047L19.8265 16.8246C20.0817 17.0313 20.1304 17.4203 19.9116 17.6755C19.8021 17.8092 19.632 17.8943 19.4496 17.8943Z" fill="#7F8391"/>
<path d="M17.541 31.667C17.5167 31.667 17.4802 31.667 17.4559 31.667C17.1277 31.6184 16.8968 31.3145 16.9332 30.9863L18.8417 17.2135C18.866 17.0676 18.939 16.9339 19.0484 16.8367L25.3209 11.33C25.5762 11.1112 25.953 11.1355 26.184 11.3908C26.4028 11.646 26.3785 12.0229 26.1232 12.2538L20.0209 17.6146L18.1367 31.1443C18.1002 31.4482 17.8328 31.667 17.541 31.667Z" fill="#7F8391"/>
<path d="M17.5412 31.6674C17.5047 31.6674 17.4804 31.6674 17.4439 31.6552C17.2251 31.6187 17.0428 31.4729 16.9699 31.2662L8.54572 9.08144C8.47278 8.87479 8.50925 8.64382 8.64297 8.47364C8.77669 8.30345 9.00765 8.23052 9.2143 8.26699L25.8195 11.1723C25.941 11.1966 26.0504 11.2452 26.1355 11.3425L30.1956 15.3175C30.4144 15.5363 30.4388 15.8888 30.2443 16.1319L18.0153 31.4364C17.8937 31.5823 17.7235 31.6674 17.5412 31.6674ZM10.0652 9.64062L17.7235 29.844L28.9557 15.7916L25.4305 12.3271L10.0652 9.64062Z" fill="#7F8391"/>
</svg>
