<svg width="177" height="176" viewBox="0 0 177 176" fill="none" xmlns="http://www.w3.org/2000/svg">
<g clip-path="url(#clip0_1781_1374)">
<path d="M22.5 21.9298H44.4298V43.8596H22.5V21.9298Z" fill="black"/>
<path d="M66.3596 0V65.7893H0.570312V0H66.3596ZM55.3947 10.9649H11.5352V54.8244H55.3947V10.9649ZM44.4298 131.579H22.5001V153.508H44.4298V131.579Z" fill="black"/>
<path d="M66.3595 109.649V175.438H0.57019V109.649H66.3595ZM11.5351 120.614V164.473H55.3946V120.614H11.5351ZM132.149 21.9298H154.078V43.8596H132.149V21.9298Z" fill="black"/>
<path d="M110.219 0V65.7893H176.008V0H110.219ZM165.043 10.9649V54.8244H121.184V10.9649H165.043ZM88.2893 10.9649V0H99.2542V21.9298H88.2893V43.8595H77.3244V10.9649H88.2893ZM88.2893 65.7893V43.8595H99.2542V65.7893H88.2893ZM66.3596 87.719V76.7541H77.3244V65.7893H88.2893V87.719H99.2542V76.7541H154.079V87.719H110.219V98.6839H77.3244V87.719H66.3596ZM66.3596 87.719V98.6839H22.5001V87.719H11.5352V98.6839H0.570312V76.7541H33.4649V87.719H66.3596ZM176.008 98.6839H165.043V76.7541H176.008V98.6839ZM165.043 98.6839H154.079V120.614H176.008V109.649H165.043V98.6839ZM121.184 98.6839H143.114V109.649H132.149V120.614H121.184V98.6839ZM143.114 131.579V120.614H132.149V131.579H121.184V142.543H99.2542V153.508H132.149V131.579H143.114ZM143.114 131.579H176.008V142.543H154.079V153.508H143.114V131.579ZM99.2542 120.614V131.579H110.219V109.649H77.3244V120.614H99.2542Z" fill="black"/>
<path d="M77.3243 131.578H88.2892V164.473H132.149V175.438H77.3243V131.578ZM176.008 153.508V175.438H143.114V164.473H165.043V153.508H176.008Z" fill="black"/>
</g>
<defs>
<clipPath id="clip0_1781_1374">
<rect width="175.438" height="175.438" fill="white" transform="translate(0.570312)"/>
</clipPath>
</defs>
</svg>
