<?xml version="1.0" standalone="no"?><!DOCTYPE svg PUBLIC "-//W3C//DTD SVG 1.1//EN" "http://www.w3.org/Graphics/SVG/1.1/DTD/svg11.dtd"><svg class="icon" width="64px" height="58.20px" viewBox="0 0 1126 1024" version="1.1" xmlns="http://www.w3.org/2000/svg"><path fill="#ffffff" d="M930.909091 605.090909v186.181818a139.636364 139.636364 0 0 1-139.636364 139.636364h-186.181818v-93.090909h186.181818a46.545455 46.545455 0 0 0 46.219637-41.099637L837.818182 791.272727v-186.181818h93.090909zM93.090909 605.090909v186.181818a46.545455 46.545455 0 0 0 41.099636 46.219637L139.636364 837.818182h186.181818v93.090909H139.636364a139.636364 139.636364 0 0 1-139.636364-139.636364v-186.181818h93.090909z m744.727273-186.181818v93.090909H93.090909v-93.090909h744.727273z m-46.545455-418.909091a139.636364 139.636364 0 0 1 139.636364 139.636364v186.181818h-93.090909V139.636364a46.545455 46.545455 0 0 0-41.099637-46.219637L791.272727 93.090909h-186.181818V0h186.181818zM325.818182 0v93.090909H139.636364a46.545455 46.545455 0 0 0-46.219637 41.099636L93.090909 139.636364v186.181818H0V139.636364a139.636364 139.636364 0 0 1 139.636364-139.636364h186.181818z"  /></svg>