<svg width="21" height="20" viewBox="0 0 21 20" fill="none" xmlns="http://www.w3.org/2000/svg">
<g id="upload-04">
<path id="Icon" d="M2.26438 10.1226C2.44848 9.71409 2.76794 9.50984 3.22276 9.50984L7.38113 9.50984L7.38114 2.6471C7.38114 2.38158 7.48401 2.1518 7.68977 1.95776C7.89552 1.76373 8.13917 1.66671 8.42073 1.66671L12.5791 1.66671C12.8607 1.66671 13.1043 1.76373 13.3101 1.95776C13.5158 2.1518 13.6187 2.38158 13.6187 2.6471L13.6187 9.50985L17.7771 9.50985C18.2319 9.50985 18.5514 9.71409 18.7355 10.1226C18.9195 10.5209 18.8437 10.8732 18.508 11.1796L11.2309 18.0423C11.036 18.2364 10.7923 18.3334 10.4999 18.3334C10.2075 18.3334 9.96388 18.2364 9.76895 18.0423L2.4918 11.1796C2.15609 10.8732 2.08029 10.5209 2.26438 10.1226Z" stroke="black" stroke-width="1.5" stroke-linejoin="round"/>
</g>
</svg>
