<?xml version="1.0" standalone="no"?><!DOCTYPE svg PUBLIC "-//W3C//DTD SVG 1.1//EN" "http://www.w3.org/Graphics/SVG/1.1/DTD/svg11.dtd"><svg t="1689759125691" class="icon" viewBox="0 0 1024 1024" version="1.1" xmlns="http://www.w3.org/2000/svg" p-id="1482" xmlns:xlink="http://www.w3.org/1999/xlink" width="200" height="200"><path d="M344.127 84.793l1.409 0.444L879.84 251.975a29.889 29.889 0 0 1 9.46 4.936c35.466 18.363 59.7 55.365 59.7 98.02v436.736C949 852.602 899.544 902 838.538 902H173.462C112.456 902 63 852.602 63 791.667V354.93c0-60.935 49.456-110.333 110.462-110.333l4.982-0.001 28.274-88.455c18.642-57.374 79.888-89.014 137.409-71.35zM122.833 466.502v325.165c0 27.928 22.668 50.57 50.63 50.57h665.075c27.961 0 50.628-22.642 50.628-50.57V466.633H125.657c-0.952 0-1.894-0.044-2.824-0.131z m638.611 198.741c31.139 0 56.382 25.214 56.382 56.316 0 31.103-25.243 56.316-56.382 56.316s-56.382-25.213-56.382-56.316c0-31.102 25.243-56.316 56.382-56.316z m77.094-360.881H173.462c-27.961 0-50.628 22.64-50.628 50.569v52.07c0.699-0.065 1.405-0.107 2.117-0.123l0.706-0.008 763.509-0.001v-51.938c0-27.65-22.216-50.116-49.791-50.563l-0.837-0.006zM263.93 173.706l-0.264 0.79-22.406 70.101h414.317L327.401 142.182c-26.327-8.554-54.576 5.6-63.47 31.524z" fill="#808291" p-id="1483"></path></svg>