<?xml version="1.0" standalone="no"?><!DOCTYPE svg PUBLIC "-//W3C//DTD SVG 1.1//EN" "http://www.w3.org/Graphics/SVG/1.1/DTD/svg11.dtd"><svg class="icon" width="64px" height="64.00px" viewBox="0 0 1024 1024" version="1.1" xmlns="http://www.w3.org/2000/svg"><path fill="#ffffff" d="M522.8832 333.44a208.64 208.64 0 1 0 208.64 208.64 208.64 208.64 0 0 0-208.64-208.64zM955.5232 169.6h-226.56v-36.48A68.48 68.48 0 0 0 659.8432 64H364.1632a68.48 68.48 0 0 0-69.12 69.12v36.48H68.4832A68.48 68.48 0 0 0 0.0032 238.08v606.08a68.48 68.48 0 0 0 68.48 69.12h887.04A68.48 68.48 0 0 0 1024.0032 844.16V238.08a68.48 68.48 0 0 0-68.48-68.48zM522.8832 819.84a277.76 277.76 0 1 1 277.76-277.76 278.4 278.4 0 0 1-277.76 277.76z m396.8-486.4H819.2032a34.56 34.56 0 1 1 0-68.48h100.48a34.56 34.56 0 1 1 0 68.48z" /></svg>