<?xml version="1.0" standalone="no"?><!DOCTYPE svg PUBLIC "-//W3C//DTD SVG 1.1//EN" "http://www.w3.org/Graphics/SVG/1.1/DTD/svg11.dtd"><svg class="icon" width="64px" height="64.00px" viewBox="0 0 1024 1024" version="1.1" xmlns="http://www.w3.org/2000/svg"><path fill="#ffffff" d="M512 1024c-282.304 0-512-229.696-512-512s229.696-512 512-512 512 229.696 512 512-229.696 512-512 512zM512 64C264.96 64 64 264.96 64 512c0 246.976 200.96 448 448 448 246.976 0 448-201.024 448-448 0-247.04-201.024-448-448-448zM572.544 272.96a32.384 32.384 0 0 1-43.584 43.584 28.8 28.8 0 0 1-13.568-13.568 32.384 32.384 0 0 1 43.584-43.584 28.48 28.48 0 0 1 13.568 13.568zM512 672c-87.296 0-158.336-74.624-158.336-166.4V326.4c0-91.776 71.04-166.4 158.336-166.4s158.336 74.688 158.336 166.4v179.2c0 91.776-71.04 166.4-158.336 166.4z m0-448c-51.968 0-94.336 45.952-94.336 102.4v179.2c0 56.448 42.304 102.4 94.336 102.4s94.336-45.952 94.336-102.4V326.4c0-56.448-42.368-102.4-94.336-102.4zM512 770.368c-143.04 0-259.392-113.472-259.392-253.056V485.76a32 32 0 0 1 64 0v31.552c0 104.256 87.68 189.056 195.392 189.056 107.776 0 195.392-84.8 195.392-189.056V485.76a32 32 0 0 1 64 0v31.552c0 139.584-116.416 253.056-259.392 253.056zM512 864a32 32 0 0 1-32-32v-84.992a32 32 0 0 1 64 0V832a32 32 0 0 1-32 32z" /></svg>