<?xml version="1.0" standalone="no"?><!DOCTYPE svg PUBLIC "-//W3C//DTD SVG 1.1//EN" "http://www.w3.org/Graphics/SVG/1.1/DTD/svg11.dtd"><svg class="icon" width="64px" height="64.00px" viewBox="0 0 1024 1024" version="1.1" xmlns="http://www.w3.org/2000/svg"><path fill="#ffffff" d="M554.133333 612.458667l-109.290666-177.6a21.333333 21.333333 0 0 0-36.352 0l-132.48 215.296A21.333333 21.333333 0 0 0 294.186667 682.666667h436.138666a21.333333 21.333333 0 0 0 18.282667-32.298667l-90.325333-150.549333a21.333333 21.333333 0 0 0-36.565334 0l-67.584 112.64zM234.666667 234.666667h554.666666a42.666667 42.666667 0 0 1 42.666667 42.666666v469.333334a42.666667 42.666667 0 0 1-42.666667 42.666666H234.666667a42.666667 42.666667 0 0 1-42.666667-42.666666V277.333333a42.666667 42.666667 0 0 1 42.666667-42.666666z m426.666666 170.666666a42.666667 42.666667 0 1 0 0-85.333333 42.666667 42.666667 0 0 0 0 85.333333z"  /></svg>